<?xml version="1.0" encoding="UTF-8" standalone="no"?><!DOCTYPE svg PUBLIC "-//W3C//DTD SVG 1.1//EN" "http://www.w3.org/Graphics/SVG/1.1/DTD/svg11.dtd"><svg width="100%" height="20px" viewBox="0 0 170 170" version="1.1" xmlns="http://www.w3.org/2000/svg" xmlns:xlink="http://www.w3.org/1999/xlink" xml:space="preserve" xmlns:serif="http://www.serif.com/" style="fill-rule:evenodd;clip-rule:evenodd;stroke-linejoin:round;stroke-miterlimit:2;"><path d="M85,0c46.913,0 85,38.087 85,85c0,46.913 -38.087,85 -85,85c-46.913,0 -85,-38.087 -85,-85c0,-46.913 38.087,-85 85,-85Zm0,7.88c42.564,-0 77.12,34.556 77.12,77.12c0,42.564 -34.556,77.12 -77.12,77.12c-42.564,0 -77.12,-34.556 -77.12,-77.12c-0,-42.564 34.556,-77.12 77.12,-77.12Z" style="fill:#fff;"/><path d="M85,13.077c39.695,-0 71.923,32.228 71.923,71.923c0,39.695 -32.228,71.923 -71.923,71.923c-39.695,0 -71.923,-32.228 -71.923,-71.923c-0,-39.695 32.228,-71.923 71.923,-71.923Zm0,7.879c35.347,0 64.044,28.697 64.044,64.044c-0,35.347 -28.697,64.044 -64.044,64.044c-35.347,-0 -64.044,-28.697 -64.044,-64.044c0,-35.347 28.697,-64.044 64.044,-64.044Z" style="fill:#fff;"/><path d="M0.151,80.096c2.534,-44.636 39.583,-80.096 84.849,-80.096c45.266,0 82.315,35.46 84.849,80.096l-169.698,0Z" style="fill:#fff;"/></svg>